<?xml version="1.0" encoding="UTF-8"?>
<svg width="24px" height="24px" viewBox="0 0 24 24" version="1.1" xmlns="http://www.w3.org/2000/svg" xmlns:xlink="http://www.w3.org/1999/xlink">
    <title>Icons / alert</title>
    <g id="Icons-/-alert" stroke="none" stroke-width="1" fill="none" fill-rule="evenodd">
        <rect id="bounding-box-24" fill="#FFFFFF" opacity="0" x="0" y="0" width="24" height="24"></rect>
        <path d="M12.8944272,3.5527864 L20.8944272,19.5527864 C21.2268777,20.2176875 20.743382,21 20,21 L4,21 C3.25661798,21 2.77312226,20.2176875 3.10557281,19.5527864 L11.1055728,3.5527864 C11.4740971,2.81573787 12.5259029,2.81573787 12.8944272,3.5527864 Z M12,6.23606798 L5.61803399,19 L18.381966,19 L12,6.23606798 Z M12,15.5 C12.6903559,15.5 13.25,16.0596441 13.25,16.75 C13.25,17.4403559 12.6903559,18 12,18 C11.3096441,18 10.75,17.4403559 10.75,16.75 C10.75,16.0596441 11.3096441,15.5 12,15.5 Z M13,10.5 L13,14.5 L11,14.5 L11,10.5 L13,10.5 Z" id="alert" fill="#2B2D33" fill-rule="nonzero"></path>
    </g>
</svg>