<?xml version="1.0" encoding="UTF-8"?>
<svg width="24px" height="24px" viewBox="0 0 24 24" version="1.1" xmlns="http://www.w3.org/2000/svg" xmlns:xlink="http://www.w3.org/1999/xlink">
    <title>Icons / bin</title>
    <g id="Icons-/-bin" stroke="none" stroke-width="1" fill="none" fill-rule="evenodd">
        <rect id="bounding-box-24" fill="#FFFFFF" opacity="0" x="0" y="0" width="24" height="24"></rect>
        <path d="M7,9 L7,20 L17,20 L17,9 L19,9 L19,21 C19,21.5522847 18.5522847,22 18,22 L6,22 C5.44771525,22 5,21.5522847 5,21 L5,9 L7,9 Z M11,9 L11,18 L9,18 L9,9 L11,9 Z M15,9 L15,18 L13,18 L13,9 L15,9 Z M15,2 C15.4304304,2 15.8125693,2.27543009 15.9486833,2.68377223 L16.72,4.999 L20,5 L20,7 L4,7 L4,5 L7.279,4.999 L8.0513167,2.68377223 C8.18743075,2.27543009 8.56956959,2 9,2 L15,2 Z M14.2792408,4 L9.72075922,4 L9.387,4.999 L14.612,4.999 L14.2792408,4 Z" id="bin" fill="#2B2D33" fill-rule="nonzero"></path>
    </g>
</svg>