<?xml version="1.0" encoding="UTF-8"?>
<svg width="24px" height="24px" viewBox="0 0 24 24" version="1.1" xmlns="http://www.w3.org/2000/svg" xmlns:xlink="http://www.w3.org/1999/xlink">
    <title>Icons / calendar</title>
    <g id="Icons-/-calendar" stroke="none" stroke-width="1" fill="none" fill-rule="evenodd">
        <rect id="bounding-box-24" fill="#FFFFFF" opacity="0" x="0" y="0" width="24" height="24"></rect>
        <path d="M10,3 L10,5 L14,5 L14,3 L16,3 L16,5 L20,5 C20.5522847,5 21,5.44771525 21,6 L21,20 C21,20.5522847 20.5522847,21 20,21 L4,21 C3.44771525,21 3,20.5522847 3,20 L3,6 C3,5.44771525 3.44771525,5 4,5 L8,5 L8,3 L10,3 Z M18.999,13 L4.999,13 L5,19 L19,19 L18.999,13 Z M16,15 C16.5522847,15 17,15.4477153 17,16 C17,16.5522847 16.5522847,17 16,17 C15.4477153,17 15,16.5522847 15,16 C15,15.4477153 15.4477153,15 16,15 Z M8,7 L5,7 L4.999,11 L18.999,11 L19,7 L16,7 L16,9 L14,9 L14,7 L10,7 L10,9 L8,9 L8,7 Z" id="calendar" fill="#2B2D33" fill-rule="nonzero"></path>
    </g>
</svg>