<?xml version="1.0" encoding="UTF-8"?>
<svg width="24px" height="24px" viewBox="0 0 24 24" version="1.1" xmlns="http://www.w3.org/2000/svg" xmlns:xlink="http://www.w3.org/1999/xlink">
    <title>Icons / client profile</title>
    <g id="Icons-/-client-profile" stroke="none" stroke-width="1" fill="none" fill-rule="evenodd">
        <rect id="bounding-box-24" fill="#FFFFFF" opacity="0" x="0" y="0" width="24" height="24"></rect>
        <g id="Group-5">
            <path d="M15,15 L3,15 L3,17 L15,17 L15,15 Z M15,7 L3,7 L3,9 L15,9 L15,7 Z M3,13 L21,13 L21,11 L3,11 L3,13 Z M3,21 L21,21 L21,19 L3,19 L3,21 Z M3,3 L3,5 L21,5 L21,3 L3,3 Z" id="Shape" fill="#2B2D33" fill-rule="nonzero"></path>
            <polygon id="Path" points="0 0 24 0 24 24 0 24"></polygon>
        </g>
    </g>
</svg>