<?xml version="1.0" encoding="UTF-8"?>
<svg width="24px" height="24px" viewBox="0 0 24 24" version="1.1" xmlns="http://www.w3.org/2000/svg" xmlns:xlink="http://www.w3.org/1999/xlink">
    <title>Icons / contact</title>
    <g id="Icons-/-contact" stroke="none" stroke-width="1" fill="none" fill-rule="evenodd">
        <rect id="bounding-box-24" fill="#FFFFFF" opacity="0" x="0" y="0" width="24" height="24"></rect>
        <path d="M19,18.9552965 L19,16.618034 L16.197453,15.2167605 L13.9761507,17.4380629 C15.575173,18.2655032 17.2812347,18.8026931 19,18.9552965 Z M12.2088138,16.3769727 L15.2928932,13.2928932 C15.5972535,12.988533 16.0622249,12.9130785 16.4472136,13.1055728 L20.4472136,15.1055728 C20.7859976,15.2749648 21,15.6212279 21,16 L21,20 C21,20.5522847 20.5522847,21 20,21 C11.4477153,21 3,12.5522847 3,4 C3,3.44771525 3.44771525,3 4,3 L8,3 C8.37877206,3 8.72503518,3.21400238 8.89442719,3.5527864 L10.8944272,7.5527864 C11.0869215,7.93777507 11.011467,8.40274652 10.7071068,8.70710678 L7.62302733,11.7911862 C8.84711552,13.5721111 10.4278889,15.1528845 12.2088138,16.3769727 Z M8.78323949,7.80254695 L7.38196601,5 L5.04470355,5 C5.19730693,6.71876528 5.73449677,8.42482703 6.56193713,10.0238493 L8.78323949,7.80254695 Z" id="contact" fill="#2B2D33" fill-rule="nonzero"></path>
    </g>
</svg>