<?xml version="1.0" encoding="UTF-8"?>
<svg width="24px" height="24px" viewBox="0 0 24 24" version="1.1" xmlns="http://www.w3.org/2000/svg" xmlns:xlink="http://www.w3.org/1999/xlink">
    <title>Icons / done</title>
    <g id="Icons-/-done" stroke="none" stroke-width="1" fill="none" fill-rule="evenodd">
        <path d="M12,2 C17.5228475,2 22,6.4771525 22,12 C22,17.5228475 17.5228475,22 12,22 C6.4771525,22 2,17.5228475 2,12 C2,6.4771525 6.4771525,2 12,2 Z M12,4 C7.581722,4 4,7.581722 4,12 C4,16.418278 7.581722,20 12,20 C16.418278,20 20,16.418278 20,12 C20,7.581722 16.418278,4 12,4 Z M16.2928932,8.79289322 L17.7071068,10.2071068 L11.2071068,16.7071068 C10.8165825,17.0976311 10.1834175,17.0976311 9.79289322,16.7071068 L9.79289322,16.7071068 L6.29289322,13.2071068 L7.70710678,11.7928932 L10.5,14.5857864 L16.2928932,8.79289322 Z" id="clock" fill="#2B2D33" fill-rule="nonzero"></path>
    </g>
</svg>