<?xml version="1.0" encoding="UTF-8"?>
<svg width="24px" height="24px" viewBox="0 0 24 24" version="1.1" xmlns="http://www.w3.org/2000/svg" xmlns:xlink="http://www.w3.org/1999/xlink">
    <title>Icons / download-cloud</title>
    <g id="Icons-/-download-cloud" stroke="none" stroke-width="1" fill="none" fill-rule="evenodd">
        <rect id="bounding-box-24" fill="#FFFFFF" opacity="0" x="0" y="0" width="24" height="24"></rect>
        <path d="M13,12 L13,18.499 L14.3,17.2 L15.7142136,18.6142136 L12.7142136,21.6142138 C12.3236893,22.0047381 11.6905243,22.0047381 11.3,21.6142138 L11.3,21.6142138 L8.3,18.6142136 L9.71421356,17.2 L11,18.485 L11,12 L13,12 Z M12,2 C14.8226012,2 17.3228231,3.68588075 18.4193712,6.20439897 C20.5099904,6.82120949 22,8.75435254 22,11 C22,13.7614237 19.7614237,16 17,16 L15,16 L15,14 L17,14 C18.6568542,14 20,12.6568542 20,11 C20,9.53287443 18.9390467,8.28719083 17.5100895,8.04302615 C17.1491756,7.98135709 16.8508221,7.72737342 16.7323304,7.38093198 C16.0463396,5.37525819 14.1544691,4 12,4 C9.23857625,4 7,6.23857625 7,9 C7,9.55228475 6.55228475,10 6,10 C4.8954305,10 4,10.8954305 4,12 C4,13.1045695 4.8954305,14 6,14 L9,14 L9,16 L6,16 C3.790861,16 2,14.209139 2,12 C2,10.1161296 3.30232042,8.53643238 5.05577898,8.1120907 C5.4920874,4.66532009 8.43478427,2 12,2 Z" id="download-cloud" fill="#2B2D33" fill-rule="nonzero"></path>
    </g>
</svg>