<?xml version="1.0" encoding="UTF-8"?>
<svg width="18px" height="18px" viewBox="0 0 18 18" version="1.1" xmlns="http://www.w3.org/2000/svg" xmlns:xlink="http://www.w3.org/1999/xlink">
    <!-- Generator: Sketch 62 (91390) - https://sketch.com -->
    <title>face-24px (1)</title>
    <desc>Created with Sketch.</desc>
    <g id="CA" stroke="none" stroke-width="1" fill="none" fill-rule="evenodd">
        <g id="ICONS" transform="translate(-1036.000000, -549.000000)">
            <g id="face-24px-(1)" transform="translate(1035.000000, 548.000000)">
                <path d="M7.5,9.79166667 C6.925,9.79166667 6.45833333,10.2583333 6.45833333,10.8333333 C6.45833333,11.4083333 6.925,11.875 7.5,11.875 C8.075,11.875 8.54166667,11.4083333 8.54166667,10.8333333 C8.54166667,10.2583333 8.075,9.79166667 7.5,9.79166667 Z M12.5,9.79166667 C11.925,9.79166667 11.4583333,10.2583333 11.4583333,10.8333333 C11.4583333,11.4083333 11.925,11.875 12.5,11.875 C13.075,11.875 13.5416667,11.4083333 13.5416667,10.8333333 C13.5416667,10.2583333 13.075,9.79166667 12.5,9.79166667 Z M10,1.66666667 C5.4,1.66666667 1.66666667,5.4 1.66666667,10 C1.66666667,14.6 5.4,18.3333333 10,18.3333333 C14.6,18.3333333 18.3333333,14.6 18.3333333,10 C18.3333333,5.4 14.6,1.66666667 10,1.66666667 Z M10,16.6666667 C6.325,16.6666667 3.33333333,13.675 3.33333333,10 C3.33333333,9.75833333 3.35,9.51666667 3.375,9.28333333 C5.34166667,8.40833333 6.9,6.8 7.71666667,4.80833333 C9.225,6.94166667 11.7083333,8.33333333 14.5166667,8.33333333 C15.1666667,8.33333333 15.7916667,8.25833333 16.3916667,8.11666667 C16.5666667,8.70833333 16.6666667,9.34166667 16.6666667,10 C16.6666667,13.675 13.675,16.6666667 10,16.6666667 Z" id="Shape" fill="#000000" fill-rule="nonzero"></path>
                <polygon id="Path" points="0 0 20 0 20 20 0 20"></polygon>
            </g>
        </g>
    </g>
</svg>