<?xml version="1.0" encoding="UTF-8"?>
<svg width="18px" height="18px" viewBox="0 0 18 18" version="1.1" xmlns="http://www.w3.org/2000/svg" xmlns:xlink="http://www.w3.org/1999/xlink">
    <!-- Generator: Sketch 62 (91390) - https://sketch.com -->
    <title>format_align_left-24px</title>
    <desc>Created with Sketch.</desc>
    <g id="CA" stroke="none" stroke-width="1" fill="none" fill-rule="evenodd" opacity="0.4">
        <g id="ICONS" transform="translate(-683.000000, -946.000000)">
            <g id="format_align_left-24px" transform="translate(680.000000, 943.000000)">
                <path d="M15,15 L3,15 L3,17 L15,17 L15,15 Z M15,7 L3,7 L3,9 L15,9 L15,7 Z M3,13 L21,13 L21,11 L3,11 L3,13 Z M3,21 L21,21 L21,19 L3,19 L3,21 Z M3,3 L3,5 L21,5 L21,3 L3,3 Z" id="Shape" fill="#000000" fill-rule="nonzero"></path>
                <polygon id="Path" points="0 0 24 0 24 24 0 24"></polygon>
            </g>
        </g>
    </g>
</svg>