<?xml version="1.0" encoding="UTF-8"?>
<svg width="24px" height="24px" viewBox="0 0 24 24" version="1.1" xmlns="http://www.w3.org/2000/svg" xmlns:xlink="http://www.w3.org/1999/xlink">
    <title>Icons / graph</title>
    <g id="Icons-/-graph" stroke="none" stroke-width="1" fill="none" fill-rule="evenodd">
        <rect id="bounding-box-24" fill="#FFFFFF" opacity="0" x="0" y="0" width="24" height="24"></rect>
        <path d="M7,12 C7.55228475,12 8,12.4477153 8,13 L8,19 C8,19.5522847 7.55228475,20 7,20 L3,20 C2.44771525,20 2,19.5522847 2,19 L2,13 C2,12.4477153 2.44771525,12 3,12 L7,12 Z M21,4 C21.5522847,4 22,4.44771525 22,5 L22,19 C22,19.5522847 21.5522847,20 21,20 L17,20 C16.4477153,20 16,19.5522847 16,19 L16,5 C16,4.44771525 16.4477153,4 17,4 L21,4 Z M14,8 C14.5522847,8 15,8.44771525 15,9 L15,19 C15,19.5522847 14.5522847,20 14,20 L10,20 C9.44771525,20 9,19.5522847 9,19 L9,9 C9,8.44771525 9.44771525,8 10,8 L14,8 Z M6,14 L4,14 L4,18 L6,18 L6,14 Z M20,6 L18,6 L18,18 L20,18 L20,6 Z M13,10 L11,10 L11,18 L13,18 L13,10 Z" id="graph" fill="#2B2D33" fill-rule="nonzero"></path>
    </g>
</svg>