<?xml version="1.0" encoding="UTF-8"?>
<svg width="24px" height="24px" viewBox="0 0 24 24" version="1.1" xmlns="http://www.w3.org/2000/svg" xmlns:xlink="http://www.w3.org/1999/xlink">
    <!-- Generator: Sketch 62 (91390) - https://sketch.com -->
    <title>Group 7</title>
    <desc>Created with Sketch.</desc>
    <g id="CA" stroke="none" stroke-width="1" fill="none" fill-rule="evenodd">
        <g id="ICONS" transform="translate(-1211.000000, -788.000000)">
            <g id="Group-7" transform="translate(1211.000000, 788.000000)">
                <circle id="Oval" fill="#FEE600" cx="12" cy="12" r="12"></circle>
                <g id="share-24px" transform="translate(6.363636, 6.363636)">
                    <polygon id="Path" points="0 0 11 0 11 11 0 11"></polygon>
                    <path d="M7.51136364,8.08969697 C7.1630303,8.08969697 6.85136364,8.22719697 6.6130303,8.44261364 L3.34511364,6.5405303 C3.3680303,6.43511364 3.38636364,6.32969697 3.38636364,6.21969697 C3.38636364,6.10969697 3.3680303,6.0042803 3.34511364,5.89886364 L6.57636364,4.01511364 C6.82386364,4.2442803 7.1492803,4.38636364 7.51136364,4.38636364 C8.27219697,4.38636364 8.88636364,3.77219697 8.88636364,3.01136364 C8.88636364,2.2505303 8.27219697,1.63636364 7.51136364,1.63636364 C6.7505303,1.63636364 6.13636364,2.2505303 6.13636364,3.01136364 C6.13636364,3.12136364 6.15469697,3.2267803 6.17761364,3.33219697 L2.94636364,5.21594697 C2.69886364,4.9867803 2.37344697,4.84469697 2.01136364,4.84469697 C1.2505303,4.84469697 0.636363636,5.45886364 0.636363636,6.21969697 C0.636363636,6.9805303 1.2505303,7.59469697 2.01136364,7.59469697 C2.37344697,7.59469697 2.69886364,7.45261364 2.94636364,7.22344697 L6.20969697,9.13011364 C6.1867803,9.22636364 6.1730303,9.32719697 6.1730303,9.4280303 C6.1730303,10.165947 6.77344697,10.7663636 7.51136364,10.7663636 C8.2492803,10.7663636 8.84969697,10.165947 8.84969697,9.4280303 C8.84969697,8.69011364 8.2492803,8.08969697 7.51136364,8.08969697 Z M7.51136364,2.5530303 C7.76344697,2.5530303 7.96969697,2.7592803 7.96969697,3.01136364 C7.96969697,3.26344697 7.76344697,3.46969697 7.51136364,3.46969697 C7.2592803,3.46969697 7.0530303,3.26344697 7.0530303,3.01136364 C7.0530303,2.7592803 7.2592803,2.5530303 7.51136364,2.5530303 Z M2.01136364,6.6780303 C1.7592803,6.6780303 1.5530303,6.4717803 1.5530303,6.21969697 C1.5530303,5.96761364 1.7592803,5.76136364 2.01136364,5.76136364 C2.26344697,5.76136364 2.46969697,5.96761364 2.46969697,6.21969697 C2.46969697,6.4717803 2.26344697,6.6780303 2.01136364,6.6780303 Z M7.51136364,9.8955303 C7.2592803,9.8955303 7.0530303,9.6892803 7.0530303,9.43719697 C7.0530303,9.18511364 7.2592803,8.97886364 7.51136364,8.97886364 C7.76344697,8.97886364 7.96969697,9.18511364 7.96969697,9.43719697 C7.96969697,9.6892803 7.76344697,9.8955303 7.51136364,9.8955303 Z" id="Shape" fill="#000000" fill-rule="nonzero"></path>
                </g>
            </g>
        </g>
    </g>
</svg>