<?xml version="1.0" encoding="UTF-8"?>
<svg width="84px" height="84px" viewBox="0 0 84 84" version="1.1" xmlns="http://www.w3.org/2000/svg" xmlns:xlink="http://www.w3.org/1999/xlink">
    <!-- Generator: Sketch 62 (91390) - https://sketch.com -->
    <title>Group 16</title>
    <desc>Created with Sketch.</desc>
    <defs>
        <circle id="path-1" cx="23" cy="23" r="23"></circle>
        <filter x="-67.4%" y="-63.0%" width="234.8%" height="234.8%" filterUnits="objectBoundingBox" id="filter-2">
            <feOffset dx="0" dy="2" in="SourceAlpha" result="shadowOffsetOuter1"></feOffset>
            <feGaussianBlur stdDeviation="10" in="shadowOffsetOuter1" result="shadowBlurOuter1"></feGaussianBlur>
            <feColorMatrix values="0 0 0 0 0   0 0 0 0 0   0 0 0 0 0  0 0 0 0.12 0" type="matrix" in="shadowBlurOuter1"></feColorMatrix>
        </filter>
    </defs>
    <g id="CA" stroke="none" stroke-width="1" fill="none" fill-rule="evenodd">
        <g id="ICONS" transform="translate(-1312.000000, -768.000000)">
            <g id="Group-16" transform="translate(1331.000000, 785.000000)">
                <g id="Oval">
                    <use fill="black" fill-opacity="1" filter="url(#filter-2)" xlink:href="#path-1"></use>
                    <use fill="#FFFFFF" fill-rule="evenodd" xlink:href="#path-1"></use>
                </g>
                <g id="icons-/-more" transform="translate(23.000000, 23.000000) rotate(90.000000) translate(-23.000000, -23.000000) translate(11.000000, 11.000000)">
                    <rect id="bounding-box-24" fill="#FFFFFF" opacity="0" x="0" y="0" width="24" height="24"></rect>
                    <path d="M4,10 C5.1045695,10 6,10.8954305 6,12 C6,13.1045695 5.1045695,14 4,14 C2.8954305,14 2,13.1045695 2,12 C2,10.8954305 2.8954305,10 4,10 Z M20,10 C21.1045695,10 22,10.8954305 22,12 C22,13.1045695 21.1045695,14 20,14 C18.8954305,14 18,13.1045695 18,12 C18,10.8954305 18.8954305,10 20,10 Z M12,10 C13.1045695,10 14,10.8954305 14,12 C14,13.1045695 13.1045695,14 12,14 C10.8954305,14 10,13.1045695 10,12 C10,10.8954305 10.8954305,10 12,10 Z" id="more" fill="#2B2D33" fill-rule="nonzero"></path>
                </g>
            </g>
        </g>
    </g>
</svg>