<?xml version="1.0" encoding="UTF-8"?>
<svg width="24px" height="24px" viewBox="0 0 24 24" version="1.1" xmlns="http://www.w3.org/2000/svg" xmlns:xlink="http://www.w3.org/1999/xlink">
    <title>Icons / home</title>
    <g id="Icons-/-home" stroke="none" stroke-width="1" fill="none" fill-rule="evenodd">
        <rect id="bounding-box-24" fill="#FFFFFF" opacity="0" x="0" y="0" width="24" height="24"></rect>
        <path d="M9,15 C9,14.4477153 9.44771525,14 10,14 L14,14 C14.5522847,14 15,14.4477153 15,15 L15,19 L19,19 L19,12.4142136 L12,5.41421356 L5,12.4142136 L5,19 L9,19 L9,15 Z M11,16 L11,20 C11,20.5522847 10.5522847,21 10,21 L4,21 C3.44771525,21 3,20.5522847 3,20 L3,12 C3,11.7347835 3.10535684,11.4804296 3.29289322,11.2928932 L11.2928932,3.29289322 C11.6834175,2.90236893 12.3165825,2.90236893 12.7071068,3.29289322 L20.7071068,11.2928932 C20.8946432,11.4804296 21,11.7347835 21,12 L21,20 C21,20.5522847 20.5522847,21 20,21 L14,21 C13.4477153,21 13,20.5522847 13,20 L13,16 L11,16 Z" id="home" fill="#2B2D33" fill-rule="nonzero"></path>
    </g>
</svg>