<?xml version="1.0" encoding="UTF-8"?>
<svg width="24px" height="24px" viewBox="0 0 24 24" version="1.1" xmlns="http://www.w3.org/2000/svg" xmlns:xlink="http://www.w3.org/1999/xlink">
    <title>Icons / language</title>
    <g id="Icons-/-language" stroke="none" stroke-width="1" fill="none" fill-rule="evenodd">
        <rect id="bounding-box-24" fill="#FFFFFF" opacity="0" x="0" y="0" width="24" height="24"></rect>
        <path d="M12,2 C17.5228475,2 22,6.4771525 22,12 C22,17.5228475 17.5228475,22 12,22 C6.4771525,22 2,17.5228475 2,12 C2,6.4771525 6.4771525,2 12,2 Z M13.9665667,12.9996073 L10.0334333,12.9996073 C10.1205796,14.9326445 10.378139,16.933008 10.806672,19.0008833 L10.9753873,19.7795015 L11.011093,19.9394817 C11.3351275,19.9794289 11.6651614,20 12,20 C12.3348386,20 12.6648725,19.9794289 12.988907,19.9394817 L13.0246127,19.7795015 C13.5548085,17.4341509 13.8685271,15.1742742 13.9665667,12.9996073 Z M8.83596352,19.3499378 L8.68364554,18.5726961 C8.32590657,16.6646387 8.10840082,14.8069194 8.03151784,12.9996671 L4.06188768,12.9999513 C4.41840583,15.8591414 6.28373203,18.2497711 8.83596352,19.3499378 Z M19.9381123,12.9999513 L15.9684822,12.9996671 C15.8812045,15.0512617 15.612709,17.1678921 15.1635654,19.3493698 C17.716268,18.2497711 19.5815942,15.8591414 19.9381123,12.9999513 Z M15.2119437,4.67089997 L15.2564217,4.85151574 C15.7074241,6.75300572 15.9529497,8.76586918 15.9938634,10.8891244 L15.994,10.999 L19.9379871,10.9990449 C19.5833943,8.1582184 17.7392929,5.7800832 15.2119437,4.67089997 Z M8.78723444,4.67042263 L8.72443403,4.69915466 C6.22979334,5.82011789 4.41362349,8.18211079 4.06201291,10.9990449 L8.00419247,10.9996997 C8.03967102,8.7680718 8.30035202,6.65793489 8.78723444,4.67042263 Z M12,4 C11.6692895,4 11.343266,4.02006696 11.0230805,4.05904968 L10.961156,4.27600558 C10.3743636,6.31943915 10.0557192,8.52074653 10.0066868,10.881589 L10.005,10.999 L13.9955435,10.9999632 C13.9584845,8.80939731 13.6903257,6.75558933 13.1922289,4.83722112 L13.038844,4.27600558 L12.9769195,4.05904968 C12.656734,4.02006696 12.3307105,4 12,4 Z" id="language" fill="#2B2D33" fill-rule="nonzero"></path>
    </g>
</svg>