<?xml version="1.0" encoding="UTF-8"?>
<svg width="24px" height="24px" viewBox="0 0 24 24" version="1.1" xmlns="http://www.w3.org/2000/svg" xmlns:xlink="http://www.w3.org/1999/xlink">
    <title>Icons / lock</title>
    <g id="Icons-/-lock" stroke="none" stroke-width="1" fill="none" fill-rule="evenodd">
        <rect id="bounding-box-24" fill="#FFFFFF" opacity="0" x="0" y="0" width="24" height="24"></rect>
        <path d="M12,2 C14.7614237,2 17,4.23857625 17,7 L17,11 L19,11 C19.5522847,11 20,11.4477153 20,12 L20,21 C20,21.5522847 19.5522847,22 19,22 L5,22 C4.44771525,22 4,21.5522847 4,21 L4,12 C4,11.4477153 4.44771525,11 5,11 L15,11 L15,7 C15,5.34314575 13.6568542,4 12,4 C10.3431458,4 9,5.34314575 9,7 L9,8 L7,8 L7,7 C7,4.23857625 9.23857625,2 12,2 Z M18,13 L6,13 L6,20 L18,20 L18,13 Z M13,15 L13,18 L11,18 L11,15 L13,15 Z" id="lock" fill="#2B2D33" fill-rule="nonzero"></path>
    </g>
</svg>