<?xml version="1.0" encoding="UTF-8"?>
<svg width="24px" height="24px" viewBox="0 0 24 24" version="1.1" xmlns="http://www.w3.org/2000/svg" xmlns:xlink="http://www.w3.org/1999/xlink">
    <title>Icons / logout</title>
    <g id="Icons-/-logout" stroke="none" stroke-width="1" fill="none" fill-rule="evenodd">
        <rect id="bounding-box-24" fill="#FFFFFF" opacity="0" x="0" y="0" width="24" height="24"></rect>
        <path d="M12,2 C17.5228475,2 22,6.4771525 22,12 C22,17.5228475 17.5228475,22 12,22 C9.31399775,22 6.79412441,20.934787 4.93174398,19.0738785 L6.34539835,17.659106 C7.83646822,19.1489973 9.84960442,20 12,20 C16.418278,20 20,16.418278 20,12 C20,7.581722 16.418278,4 12,4 C9.849023,4 7.83538718,4.85146628 6.34421913,6.34207257 L4.93027203,4.92759259 C6.79277371,3.06579258 9.31327058,2 12,2 Z M12.7071068,7.29289322 L16.7071068,11.2928932 C17.0976311,11.6834175 17.0976311,12.3165825 16.7071068,12.7071068 L12.7071068,16.7071068 L11.2928932,15.2928932 L13.585,13 L3,13 L3,11 L13.585,11 L11.2928932,8.70710678 L12.7071068,7.29289322 Z" id="logout" fill="#2B2D33" fill-rule="nonzero"></path>
    </g>
</svg>