<?xml version="1.0" encoding="UTF-8"?>
<svg width="36px" height="34px" viewBox="0 0 36 34" version="1.1" xmlns="http://www.w3.org/2000/svg" xmlns:xlink="http://www.w3.org/1999/xlink">
    <!-- Generator: Sketch 62 (91390) - https://sketch.com -->
    <title>Logo</title>
    <desc>Created with Sketch.</desc>
    <g id="CA" stroke="none" stroke-width="1" fill="none" fill-rule="evenodd">
        <g id="ICONS" transform="translate(-546.000000, -541.000000)" fill="#2B2D33" fill-rule="nonzero">
            <g id="Logo" transform="translate(546.000000, 541.000000)">
                <path d="M6.78433054,0.600418777 C5.63610913,0.615852373 4.3496967,1.05886756 3.06370843,2.30362121 C0.236864005,5.03973958 0,8.53618948 0,9.54926002 L1.5460119,7.97534313 L7.49221121,13.8831517 L9.14582085,12.2417815 L9.14582085,8.36320095 L10.8447347,10.0439189 L10.8390824,14.731943 L13.2118987,17.0815755 L1.14960884,29.0489638 L5.91223136,33.7650933 L17.9688587,21.8426739 L30.1444093,33.9 L34.9070323,29.1726282 L22.7201545,17.0815755 L25.098635,14.7488063 L25.098635,10.0439189 L26.7918859,8.36320095 L26.7918859,12.2586448 L28.4511585,13.8831517 L34.3916946,7.97534313 L36,9.54926002 C36,8.531595 35.6951798,5.03973958 32.8683357,2.30362121 C29.7009738,-0.760389773 26.5339931,1.0306571 25.4384178,2.11812456 L19.7074137,7.81232974 L21.1231763,9.22885553 L17.9688587,12.3598248 L14.8032151,9.22885553 L16.2359667,7.81232974 L10.4936366,2.11812456 C9.84698403,1.47244057 8.46251123,0.57784829 6.78434123,0.600418777 L6.78433054,0.600418777 Z" id="Shape"></path>
            </g>
        </g>
    </g>
</svg>