<?xml version="1.0" encoding="UTF-8"?>
<svg width="24px" height="24px" viewBox="0 0 24 24" version="1.1" xmlns="http://www.w3.org/2000/svg" xmlns:xlink="http://www.w3.org/1999/xlink">
    <title>Icons / message</title>
    <g id="Icons-/-message" stroke="none" stroke-width="1" fill="none" fill-rule="evenodd">
        <rect id="bounding-box-24" fill="#FFFFFF" opacity="0" x="0" y="0" width="24" height="24"></rect>
        <path d="M19,3 C19.5522847,3 20,3.44771525 20,4 L20,18 C20,18.5522847 19.5522847,19 19,19 L12.3333333,19 L8.6,21.8 C7.94076375,22.2944272 7,21.8240453 7,21 L7,19 L4,19 C3.44771525,19 3,18.5522847 3,18 L3,4 C3,3.44771525 3.44771525,3 4,3 L19,3 Z M18,5 L5,5 L5,17 L8,17 C8.55228475,17 9,17.4477153 9,18 L9,19 L11.4,17.2 C11.5730962,17.0701779 11.7836298,17 12,17 L18,17 L18,5 Z M16,12 L16,14 L7,14 L7,12 L16,12 Z M16,8 L16,10 L7,10 L7,8 L16,8 Z" id="message" fill="#2B2D33" fill-rule="nonzero"></path>
    </g>
</svg>