<?xml version="1.0" encoding="UTF-8"?>
<svg width="16px" height="19px" viewBox="0 0 16 19" version="1.1" xmlns="http://www.w3.org/2000/svg" xmlns:xlink="http://www.w3.org/1999/xlink">
    <!-- Generator: Sketch 62 (91390) - https://sketch.com -->
    <title>opacity-24px</title>
    <desc>Created with Sketch.</desc>
    <g id="CA" stroke="none" stroke-width="1" fill="none" fill-rule="evenodd">
        <g id="ICONS" transform="translate(-819.000000, -808.000000)">
            <g id="opacity-24px" transform="translate(815.000000, 806.000000)">
                <path d="M24,0 L0,0 L0,24 L24,24 L24,0 Z M24,0 L0,0 L0,24 L24,24 L24,0 Z M0,24 L24,24 L24,0 L0,0 L0,24 Z" id="Shape"></path>
                <path d="M17.66,7.5592957 L12,2 L6.34,7.5592957 C4.78,9.09425168 4,11.1408597 4,13.1087519 C4,15.0766442 4.78,17.1527706 6.34,18.6877266 C7.9,20.2226825 9.95,21 12,21 C14.05,21 16.1,20.2226825 17.66,18.6877266 C19.22,17.1527706 20,15.0766442 20,13.1087519 C20,11.1408597 19.22,9.09425168 17.66,7.5592957 Z" id="Shape" fill="#000000" fill-rule="nonzero"></path>
            </g>
        </g>
    </g>
</svg>