<?xml version="1.0" encoding="UTF-8"?>
<svg width="24px" height="24px" viewBox="0 0 24 24" version="1.1" xmlns="http://www.w3.org/2000/svg" xmlns:xlink="http://www.w3.org/1999/xlink">
    <title>Icons / percentage</title>
    <g id="Icons-/-percentage" stroke="none" stroke-width="1" fill="none" fill-rule="evenodd">
        <rect id="bounding-box-24" fill="#FFFFFF" opacity="0" x="0" y="0" width="24" height="24"></rect>
        <path d="M17,13 C19.209139,13 21,14.790861 21,17 C21,19.209139 19.209139,21 17,21 C14.790861,21 13,19.209139 13,17 C13,14.790861 14.790861,13 17,13 Z M19.2928932,3.29289322 L20.7071068,4.70710678 L4.70710678,20.7071068 L3.29289322,19.2928932 L19.2928932,3.29289322 Z M17,15 C15.8954305,15 15,15.8954305 15,17 C15,18.1045695 15.8954305,19 17,19 C18.1045695,19 19,18.1045695 19,17 C19,15.8954305 18.1045695,15 17,15 Z M7,3 C9.209139,3 11,4.790861 11,7 C11,9.209139 9.209139,11 7,11 C4.790861,11 3,9.209139 3,7 C3,4.790861 4.790861,3 7,3 Z M7,5 C5.8954305,5 5,5.8954305 5,7 C5,8.1045695 5.8954305,9 7,9 C8.1045695,9 9,8.1045695 9,7 C9,5.8954305 8.1045695,5 7,5 Z" id="percentage" fill="#2B2D33" fill-rule="nonzero"></path>
    </g>
</svg>