<?xml version="1.0" encoding="UTF-8"?>
<svg width="24px" height="24px" viewBox="0 0 24 24" version="1.1" xmlns="http://www.w3.org/2000/svg" xmlns:xlink="http://www.w3.org/1999/xlink">
    <title>Icons / refresh</title>
    <g id="Icons-/-refresh" stroke="none" stroke-width="1" fill="none" fill-rule="evenodd">
        <rect id="bounding-box-24" fill="#FFFFFF" opacity="0" x="0" y="0" width="24" height="24"></rect>
        <path d="M21.0428932,2.89644661 L21.0428932,8.89644661 C21.0428932,9.44873136 20.595178,9.89644661 20.0428932,9.89644661 L14.0428932,9.89644661 L14.0428932,7.89644661 L17.6729669,7.89661389 C16.3811808,6.11194024 14.2924648,5 12,5 C8.13400675,5 5,8.13400675 5,12 C5,15.8659932 8.13400675,19 12,19 C15.8659932,19 19,15.8659932 19,12 L21,12 C21,16.9705627 16.9705627,21 12,21 C7.02943725,21 3,16.9705627 3,12 C3,7.02943725 7.02943725,3 12,3 C14.8032043,3 17.369777,4.29359668 19.0427809,6.39431679 L19.0428932,2.89644661 L21.0428932,2.89644661 Z" id="refresh" fill="#2B2D33" fill-rule="nonzero"></path>
    </g>
</svg>