<?xml version="1.0" encoding="UTF-8"?>
<svg width="24px" height="24px" viewBox="0 0 24 24" version="1.1" xmlns="http://www.w3.org/2000/svg" xmlns:xlink="http://www.w3.org/1999/xlink">
    <title>Icons / settings</title>
    <g id="Icons-/-settings" stroke="none" stroke-width="1" fill="none" fill-rule="evenodd">
        <rect id="bounding-box-24" fill="#FFFFFF" opacity="0" x="0" y="0" width="24" height="24"></rect>
        <path d="M17,13 C19.209139,13 21,14.790861 21,17 C21,19.209139 19.209139,21 17,21 C15.1364348,21 13.570521,19.7256022 13.1262135,18.0007613 L3,18 L3,16 L13.1259548,16.0002435 C13.5699129,14.2748927 15.1360729,13 17,13 Z M17,15 C15.8954305,15 15,15.8954305 15,17 C15,18.1045695 15.8954305,19 17,19 C18.1045695,19 19,18.1045695 19,17 C19,15.8954305 18.1045695,15 17,15 Z M7,3 C8.86392711,3 10.4300871,4.27489272 10.8740452,6.00024347 L21,6 L21,8 L10.8737865,8.00076134 C10.429479,9.72560224 8.86356525,11 7,11 C4.790861,11 3,9.209139 3,7 C3,4.790861 4.790861,3 7,3 Z M7,5 C5.8954305,5 5,5.8954305 5,7 C5,8.1045695 5.8954305,9 7,9 C8.1045695,9 9,8.1045695 9,7 C9,5.8954305 8.1045695,5 7,5 Z" id="settings" fill="#2B2D33" fill-rule="nonzero"></path>
    </g>
</svg>