<?xml version="1.0" encoding="UTF-8"?>
<svg width="24px" height="24px" viewBox="0 0 24 24" version="1.1" xmlns="http://www.w3.org/2000/svg" xmlns:xlink="http://www.w3.org/1999/xlink">
    <title>Icons / trash bin</title>
    <g id="Icons-/-trash-bin" stroke="none" stroke-width="1" fill="none" fill-rule="evenodd">
        <rect id="bounding-box-24" fill="#FFFFFF" opacity="0" x="0" y="0" width="24" height="24"></rect>
        <g id="icons-/-bin" transform="translate(2.000000, 2.000000)">
            <rect id="bounding-box-24" fill="#FFFFFF" fill-rule="evenodd" opacity="0" x="0" y="0" width="20" height="20"></rect>
            <path d="M5.83333333,7.5 L5.83333333,16.6666667 L14.1666667,16.6666667 L14.1666667,7.5 L15.8333333,7.5 L15.8333333,17.5 C15.8333333,17.9602373 15.4602373,18.3333333 15,18.3333333 L5,18.3333333 C4.53976271,18.3333333 4.16666667,17.9602373 4.16666667,17.5 L4.16666667,7.5 L5.83333333,7.5 Z M9.16666667,7.5 L9.16666667,15 L7.5,15 L7.5,7.5 L9.16666667,7.5 Z M12.5,7.5 L12.5,15 L10.8333333,15 L10.8333333,7.5 L12.5,7.5 Z M12.5,1.66666667 C12.858692,1.66666667 13.177141,1.89619175 13.2905694,2.23647686 L13.9333333,4.16566667 L16.6666667,4.16666667 L16.6666667,5.83333333 L3.33333333,5.83333333 L3.33333333,4.16666667 L6.06533333,4.16566667 L6.70943058,2.23647686 C6.82285896,1.89619175 7.14130799,1.66666667 7.5,1.66666667 L12.5,1.66666667 Z M11.8993673,3.33333333 L8.10063268,3.33333333 L7.82233333,4.16566667 L12.1773333,4.16566667 L11.8993673,3.33333333 Z" id="bin" fill="#2B2D33" fill-rule="nonzero"></path>
        </g>
    </g>
</svg>