<?xml version="1.0" encoding="UTF-8"?>
<svg width="24px" height="24px" viewBox="0 0 24 24" version="1.1" xmlns="http://www.w3.org/2000/svg" xmlns:xlink="http://www.w3.org/1999/xlink">
    <title>Icons / user</title>
    <g id="Icons-/-user" stroke="none" stroke-width="1" fill="none" fill-rule="evenodd">
        <rect id="bounding-box-24" fill="#FFFFFF" opacity="0" x="0" y="0" width="24" height="24"></rect>
        <polygon id="Path" points="0 0 24 0 24 24 0 24"></polygon>
        <g id="face-24px-(1)" transform="translate(3.000000, 3.000000)" fill="#2B2D33" fill-rule="nonzero">
            <path d="M6.5,8.79166667 C5.925,8.79166667 5.45833333,9.25833333 5.45833333,9.83333333 C5.45833333,10.4083333 5.925,10.875 6.5,10.875 C7.075,10.875 7.54166667,10.4083333 7.54166667,9.83333333 C7.54166667,9.25833333 7.075,8.79166667 6.5,8.79166667 Z M11.5,8.79166667 C10.925,8.79166667 10.4583333,9.25833333 10.4583333,9.83333333 C10.4583333,10.4083333 10.925,10.875 11.5,10.875 C12.075,10.875 12.5416667,10.4083333 12.5416667,9.83333333 C12.5416667,9.25833333 12.075,8.79166667 11.5,8.79166667 Z M9,0.666666667 C4.4,0.666666667 0.666666667,4.4 0.666666667,9 C0.666666667,13.6 4.4,17.3333333 9,17.3333333 C13.6,17.3333333 17.3333333,13.6 17.3333333,9 C17.3333333,4.4 13.6,0.666666667 9,0.666666667 Z M9,15.6666667 C5.325,15.6666667 2.33333333,12.675 2.33333333,9 C2.33333333,8.75833333 2.35,8.51666667 2.375,8.28333333 C4.34166667,7.40833333 5.9,5.8 6.71666667,3.80833333 C8.225,5.94166667 10.7083333,7.33333333 13.5166667,7.33333333 C14.1666667,7.33333333 14.7916667,7.25833333 15.3916667,7.11666667 C15.5666667,7.70833333 15.6666667,8.34166667 15.6666667,9 C15.6666667,12.675 12.675,15.6666667 9,15.6666667 Z" id="Shape"></path>
        </g>
    </g>
</svg>