<?xml version="1.0" encoding="UTF-8"?>
<svg width="24px" height="24px" viewBox="0 0 24 24" version="1.1" xmlns="http://www.w3.org/2000/svg" xmlns:xlink="http://www.w3.org/1999/xlink">
    <title>Icons / visible</title>
    <g id="Icons-/-visible" stroke="none" stroke-width="1" fill="none" fill-rule="evenodd">
        <rect id="bounding-box-24" fill="#FFFFFF" opacity="0" x="0" y="0" width="24" height="24"></rect>
        <path d="M12,5 C15.3150308,5 18.5698319,7.16986742 21.794774,11.3930944 C22.0684087,11.7514331 22.0684087,12.2485669 21.794774,12.6069056 C18.5698319,16.8301326 15.3150308,19 12,19 C8.6849692,19 5.43016807,16.8301326 2.20522604,12.6069056 C1.93159132,12.2485669 1.93159132,11.7514331 2.20522604,11.3930944 C5.43016807,7.16986742 8.6849692,5 12,5 Z M12,7 C9.56600749,7 6.9809634,8.63390616 4.27048719,12 C6.9809634,15.3660938 9.56600749,17 12,17 C14.4339925,17 17.0190366,15.3660938 19.7295128,12 C17.0190366,8.63390616 14.4339925,7 12,7 Z M12,9 C13.6568542,9 15,10.3431458 15,12 C15,13.6568542 13.6568542,15 12,15 C10.3431458,15 9,13.6568542 9,12 C9,10.3431458 10.3431458,9 12,9 Z M12,11 C11.4477153,11 11,11.4477153 11,12 C11,12.5522847 11.4477153,13 12,13 C12.5522847,13 13,12.5522847 13,12 C13,11.4477153 12.5522847,11 12,11 Z" id="visible" fill="#2B2D33" fill-rule="nonzero"></path>
    </g>
</svg>