<?xml version="1.0" encoding="UTF-8"?>
<svg width="24px" height="24px" viewBox="0 0 24 24" version="1.1" xmlns="http://www.w3.org/2000/svg" xmlns:xlink="http://www.w3.org/1999/xlink">
    <title>Icons / visible-off</title>
    <g id="Icons-/-visible-off" stroke="none" stroke-width="1" fill="none" fill-rule="evenodd">
        <rect id="bounding-box-24" fill="#FFFFFF" opacity="0" x="0" y="0" width="24" height="24"></rect>
        <path d="M5.70710678,4.29289322 L7.66255598,6.24687099 C9.09846015,5.41891807 10.5434161,5 12,5 C15.3150308,5 18.5698319,7.16986742 21.794774,11.3930944 C22.0684087,11.7514331 22.0684087,12.2485669 21.794774,12.6069056 C20.5391437,14.2512178 19.278987,15.5842547 18.0125113,16.5991396 L19.7071068,18.2928932 L18.2928932,19.7071068 L16.337444,17.753129 C14.9015398,18.5810819 13.4565839,19 12,19 C8.6849692,19 5.43016807,16.8301326 2.20522604,12.6069056 C1.93159132,12.2485669 1.93159132,11.7514331 2.20522604,11.3930944 C3.46085631,9.74878219 4.72101302,8.4157453 5.98748872,7.40086038 L4.29289322,5.70710678 L5.70710678,4.29289322 Z M4.27048719,12 C6.9809634,15.3660938 9.56600749,17 12,17 C12.9319772,17 13.8861005,16.7604483 14.8609317,16.2758276 L7.41035474,8.82500245 C6.38419478,9.6191151 5.33705194,10.6754516 4.27048719,12 Z M12,7 C11.0680228,7 10.1138995,7.23955167 9.13906831,7.72417237 L16.5886438,15.1757725 C17.6151239,14.3815721 18.6626011,13.3249793 19.7295128,12 C17.0190366,8.63390616 14.4339925,7 12,7 Z" id="visbile-off" fill="#2B2D33" fill-rule="nonzero"></path>
    </g>
</svg>