<?xml version="1.0" encoding="UTF-8"?>
<svg width="24px" height="24px" viewBox="0 0 24 24" version="1.1" xmlns="http://www.w3.org/2000/svg" xmlns:xlink="http://www.w3.org/1999/xlink">
    <title>Icons / wallet</title>
    <g id="Icons-/-wallet" stroke="none" stroke-width="1" fill="none" fill-rule="evenodd">
        <rect id="bounding-box-24" fill="#FFFFFF" opacity="0" x="0" y="0" width="24" height="24"></rect>
        <path d="M19,4 C19.5522847,4 20,4.44771525 20,5 L20,8 L21,8 C21.5522847,8 22,8.44771525 22,9 L22,15 C22,15.5522847 21.5522847,16 21,16 L20,16 L20,19 C20,19.5522847 19.5522847,20 19,20 L3,20 C2.44771525,20 2,19.5522847 2,19 L2,5 C2,4.44771525 2.44771525,4 3,4 L19,4 Z M13,12 C13,13.0543618 13.8158778,13.9181651 14.8507377,13.9945143 L15,14 L20,14 L20,10 L15,10 C13.8954305,10 13,10.8954305 13,12 Z M18,11 L18,13 L16,13 L16,11 L18,11 Z M11,12 C11,9.790861 12.790861,8 15,8 L18,8 L18,6 L4,6 L4,18 L18,18 L18,16 L15,16 C12.790861,16 11,14.209139 11,12 Z" id="wallet" fill="#2B2D33" fill-rule="nonzero"></path>
    </g>
</svg>